<?xml version="1.0" standalone="no"?>
<!DOCTYPE svg PUBLIC "-//W3C//DTD SVG 20010904//EN"
 "http://www.w3.org/TR/2001/REC-SVG-20010904/DTD/svg10.dtd">
<svg version="1.0" xmlns="http://www.w3.org/2000/svg"
 width="1024.000000pt" height="1024.000000pt" viewBox="0 0 1024.000000 1024.000000"
 preserveAspectRatio="xMidYMid meet">

<g transform="translate(0.000000,1024.000000) scale(0.100000,-0.100000)"
fill="#ffffff" stroke="none">
<path d="M2835 8720 c-171 -25 -264 -79 -449 -259 -224 -220 -733 -748 -775
-804 -50 -68 -95 -157 -118 -232 -17 -57 -18 -174 -18 -2615 0 -2781 -4 -2606
56 -2753 40 -100 86 -172 159 -250 111 -119 233 -194 380 -234 62 -17 210 -18
2775 -18 2611 0 2713 1 2780 19 270 71 482 273 573 541 42 126 43 167 40 2010
l-3 1760 -22 42 c-45 83 -142 127 -228 103 -54 -15 -116 -66 -141 -117 -18
-37 -19 -102 -24 -1828 -3 -984 -9 -1803 -13 -1820 -24 -95 -97 -195 -177
-244 -107 -66 116 -61 -2796 -59 l-2640 3 -76 38 c-85 41 -142 98 -178 174
-52 110 -50 5 -50 2511 l0 2332 271 0 c296 0 361 8 474 60 185 84 332 274 362
468 5 26 7 208 5 405 l-3 357 1663 0 c1374 -1 1670 -3 1701 -14 64 -23 115
-65 139 -115 l23 -46 5 -745 5 -745 23 -41 c27 -46 89 -91 141 -100 81 -16
178 36 219 117 l23 44 -3 775 c-3 770 -3 775 -25 840 -80 234 -281 400 -531
439 -81 13 -3462 14 -3547 1z m-245 -896 c0 -206 -1 -211 -26 -262 -30 -60
-82 -105 -139 -121 -44 -12 -336 -14 -400 -3 l-39 7 39 45 c22 25 154 163 294
308 179 185 257 259 262 250 5 -7 9 -108 9 -224z"/>
<path d="M7773 7839 c-137 -23 -282 -110 -373 -225 -102 -128 -137 -225 -139
-389 -2 -94 2 -123 23 -190 35 -111 89 -196 173 -275 126 -118 272 -173 451
-169 109 2 182 19 266 60 127 63 218 150 280 268 132 251 88 538 -114 741
-150 151 -352 215 -567 179z"/>
<path d="M4583 7220 c-38 -23 -44 -33 -104 -175 -26 -60 -90 -213 -144 -340
-53 -126 -143 -340 -200 -475 -57 -135 -189 -450 -295 -700 -106 -250 -239
-567 -297 -705 -211 -501 -540 -1281 -672 -1591 -44 -105 -81 -200 -81 -212 0
-11 11 -34 24 -49 l24 -28 399 -3 c219 -2 417 0 441 3 80 12 86 22 273 480 94
231 189 462 210 514 21 52 44 100 49 105 16 16 1767 21 1797 5 26 -14 28 -17
258 -584 103 -253 197 -470 208 -483 38 -41 72 -43 505 -40 l414 3 25 29 c30
36 28 73 -10 156 -14 30 -39 89 -55 130 -17 41 -65 156 -107 255 -83 195 -335
795 -395 940 -47 112 -283 671 -510 1205 -155 364 -376 888 -482 1139 -121
289 -161 378 -176 395 -42 46 -42 46 -569 46 -475 0 -499 -1 -530 -20z m570
-990 c10 -19 103 -246 208 -505 286 -705 309 -763 309 -779 0 -8 -10 -22 -22
-30 -20 -14 -87 -16 -537 -16 -465 0 -516 2 -533 17 -10 9 -18 22 -18 30 0 7
80 210 179 451 98 240 216 529 262 642 45 113 87 211 92 218 16 21 41 9 60
-28z"/>
</g>
</svg>
